<svg id="Layer_1" data-name="Layer 1" xmlns="http://www.w3.org/2000/svg" viewBox="0 0 283.46 59.79"><defs><style>.cls-1{fill:#fff;}</style></defs><title>proximus_logo</title><path class="cls-1" d="M141.45,18.15c.72-.54,4.68-3.73,5-8.27a8.78,8.78,0,0,0-2.82-7,8.84,8.84,0,0,0-7-2.83c-4.54.35-7.73,4.31-8.27,5a29.31,29.31,0,0,0-5.28,12.32c-1.32.11-2.67.18-4,.18s-2.73-.07-4-.19a29.45,29.45,0,0,0-5.29-12.31c-.54-.72-3.73-4.68-8.26-5a8.85,8.85,0,0,0-7,2.83,8.85,8.85,0,0,0-2.83,7c.35,4.53,4.31,7.72,5,8.26a29.45,29.45,0,0,0,12.31,5.29c.12,1.32.19,2.67.19,4s-.07,2.72-.18,4a29.31,29.31,0,0,0-12.32,5.28c-.72.54-4.68,3.73-5,8.27a8.84,8.84,0,0,0,2.83,7,8.78,8.78,0,0,0,7,2.82c4.54-.34,7.73-4.3,8.27-5A29.36,29.36,0,0,0,115,37.59c1.32-.12,2.67-.18,4-.18s2.73.06,4,.18a29.62,29.62,0,0,0,5.28,12.32c.55.72,3.73,4.68,8.27,5a8.75,8.75,0,0,0,7-2.83,8.75,8.75,0,0,0,2.83-7c-.34-4.54-4.3-7.72-5-8.27a29.62,29.62,0,0,0-12.32-5.28q-.18-2-.18-4.05c0-1.37.06-2.72.18-4A29.36,29.36,0,0,0,141.45,18.15Zm-7.7-8.84.09-.11c.66-.88,2.18-2.23,3.31-2.31.2,0,.74-.06,1.63.83h0c.88.89.85,1.43.83,1.63-.08,1.13-1.43,2.64-2.31,3.3l-.12.1A19.92,19.92,0,0,1,130.53,16h0A19.88,19.88,0,0,1,133.75,9.31ZM107.51,16a19.73,19.73,0,0,1-6.65-3.22l-.12-.09c-.88-.66-2.23-2.18-2.31-3.31,0-.2-.05-.74.83-1.63h0c.89-.88,1.43-.85,1.63-.83C102,7,103.54,8.32,104.2,9.2l.09.12A19.73,19.73,0,0,1,107.51,16Zm-3.22,29.67-.09.12c-.66.88-2.18,2.23-3.31,2.31-.2,0-.74,0-1.62-.83h0c-.88-.89-.85-1.43-.83-1.63.08-1.13,1.43-2.65,2.31-3.31l.12-.09A19.73,19.73,0,0,1,107.51,39h0A19.73,19.73,0,0,1,104.29,45.64Zm17.87-15c-1-.06-2.08-.1-3.14-.1s-2.11,0-3.14.1c.06-1,.1-2.08.1-3.15s0-2.1-.1-3.13c1,.06,2.08.09,3.15.1s2.1,0,3.13-.1c-.06,1-.09,2.08-.1,3.14S122.1,29.59,122.16,30.62ZM130.53,39a20.07,20.07,0,0,1,6.66,3.22l.11.1c.88.66,2.23,2.17,2.31,3.3,0,.2.06.74-.83,1.63h0c-.89.89-1.43.85-1.63.83-1.13-.08-2.64-1.43-3.3-2.31l-.1-.11A20.07,20.07,0,0,1,130.53,39Z"/><path class="cls-1" d="M151,45.75h8.36V10.86H151ZM243.5,10.86v20c0,5.73-3.23,7.53-7.23,7.53s-7.17-1.8-7.17-7.53v-20h-8.36v20c0,10.33,5.37,15.53,15.53,15.53s15.59-5.2,15.59-15.53v-20ZM186,45.75h8.36V24.25c0-3.53,1.44-6,6.4-6,4.42,0,6.45,1.91,6.45,6v21.5h8.37V23.65c0-9.5-7-13.38-14.82-13.38-3.77,0-7.95,1.19-10.58,3.82-2.63-2.63-6.81-3.82-10.57-3.82-8.19,0-14.82,4.54-14.82,13.38v22.1h8.36V24.25c0-3.53,1.44-6,6.4-6,4.42,0,6.45,1.91,6.45,6Zm-111.95.6c-9.5,0-16.85-6.45-16.85-18s7.35-18,16.85-18S91,16.72,91,28.31s-7.4,18-16.9,18Zm0-28.08c-5,0-8.49,3-8.49,10s3.53,10,8.49,10,8.54-2.92,8.54-10-3.53-10-8.54-10ZM46.3,45.75H37.93V25.32c0-8.54,5.56-15,15.42-15a15.53,15.53,0,0,1,3.41.3l-1.44,8.06s-1.2-.12-2-.12c-4.84,0-7.05,2.93-7.05,7.41Zm-29.75.6a15.17,15.17,0,0,1-8.18-2.27V59.79H0V28.31c0-11.59,7.05-18,16.55-18s16.55,6.45,16.55,18-7,18-16.55,18Zm0-8.07c5,0,8.18-2.92,8.18-10s-3.22-10-8.18-10-8.18,3-8.18,10,3.22,10,8.18,10ZM271.69,24.42c-5.85-2-7.1-2.62-7.1-4.24,0-1.31.65-2.39,3.76-2.39a44.84,44.84,0,0,1,11.71,1.62l1.55-7.23a38,38,0,0,0-13-1.91c-9.92,0-12.31,5.25-12.31,10.21,0,5.14,2.63,7.53,11.47,10.58,5.91,2.09,7.41,2.86,7.41,4.66s-1.73,3.1-5.62,3.1A33.83,33.83,0,0,1,257.72,36l-2,7.22a29.27,29.27,0,0,0,13.75,3.11c10.45,0,14-5,14-10.63C283.46,30.28,280.9,27.53,271.69,24.42Z"/></svg>