<svg id="Icon" xmlns="http://www.w3.org/2000/svg" viewBox="0 0 530.06 530.07"><defs><style>.cls-1{fill:#5c2d91;}</style></defs><title>icon_World_rgb</title><g id="Icon_Vectorised"><path class="cls-1" d="M330.15,176.85A116.75,116.75,0,0,0,320,203.46l-.26-.06c-6.68-22.65-4.86-29.71-4.27-31.18,1.13-.13,5.08-.07,14.7,4.63m-128.92-3.17c7.65-16.93,18-25.42,23.74-26.27a5,5,0,0,1,2.84,1.84c1.86,2.17,6,9.37,4.09,29.52-.56,6-2.08,8.65-3,9-4.16,1.54-16.32-4.87-27.7-14.07M265,506.17C132.07,506.17,23.89,398,23.89,265a240.34,240.34,0,0,1,10.83-71.55,150.41,150.41,0,0,0,19.86,40.74C70.23,257.3,93.19,279.09,116,292.49l2.09,1.21c-3.5,28.1,3.32,64,32.58,80.22-8.93,50.75,6.83,77.25,14.33,86.54,6.72,8.35,14.6,13.13,21.61,13.13a12.84,12.84,0,0,0,9.22-3.74c4.21-4.24,4.16-9.66,4.11-15.38-.09-11.61-.29-35.75,33.4-69.48,22.14-22.17,31.38-38.06,30.88-53.13-.56-17-13.37-28.27-28.21-41.29-5.39-4.73-11-9.62-16.66-15.3-28.42-28.43-28.4-60.87-24.67-80.54,1,.71,2,1.42,3,2.12C213.4,207.6,226,211,236.15,207.23c6.59-2.44,14.8-9,16.45-26.52,2-21.83-1.46-37.47-10.41-46.49-8-8-16.89-7.7-18.64-7.56C209,128,194.4,141,184.34,160.83c-18-12.44-48-38.92-49-67.08-.56-15.93,8.18-31.5,26-46.38A239.57,239.57,0,0,1,265,23.89c80.72,0,152.29,39.87,196.09,101-23.87-3-64.39-4-97,16A93.64,93.64,0,0,0,342,159.57c-15.95-8.18-29.33-11.15-38.85-4.26-14.51,10.5-9,35.89-2.51,56.84l.48,1.57,1,1.35c5.78,8.21,16.11,10.34,23.78,8.8,7.08-1.43,12.11-5.82,13.4-11.77a97.58,97.58,0,0,1,8.93-24.85c10,6.39,20.74,14,31.23,21.45,5.6,4,11,7.83,16.23,11.42-30.23,1.71-52.94,8.4-67.53,19.83-13.15,10.3-26.06,29.62-13,63.22l.28.7c8.2,17.26,19.5,21.75,27,24.72,4.82,1.92,6.16,2.62,7.16,4.48,1.48,2.7,3,9.22,1.81,24.85-3.78,50.28,4.31,63.39,10.72,68.9a15.64,15.64,0,0,0,10.29,4,13.76,13.76,0,0,0,2.81-.29l1.82-.42,1.55-1a261,261,0,0,0,50.17-45.73c30-35.43,44.31-73.23,41.85-109.88,11.12-4.12,26.32-10.77,35.48-14.88.07,2.14.09,4.29.09,6.45C506.17,398,398,506.17,265,506.17M141.77,281.94a40.58,40.58,0,0,1,4.82-10.74,38.09,38.09,0,0,1,2.87,6.9,21.94,21.94,0,0,1,1.18,5.64c-1.84.15-4.88-.42-8.87-1.8M117,74.84a62.07,62.07,0,0,0-2.42,19.65c1.52,43.08,47,76.28,62.06,86.13a113.57,113.57,0,0,0-3.13,49.57c3.68,22.67,14.16,42.78,31.15,59.76,6.17,6.18,12.27,11.53,17.65,16.26,13.34,11.68,20.89,18.68,21.14,26.33.28,8.42-7.84,20.76-24.81,37.75-32.31,32.34-38.25,58.19-39.29,74.52-7.41-11-15.6-34.09-6.77-74.67l1.9-8.73-8.36-3.2c-20.41-7.74-26.37-27.55-27.77-42.8a87.3,87.3,0,0,1-.21-12.88c9.71,2.84,19.27,3.05,26.22-2.51,5.08-4.08,10.06-12.28,4.9-28.29-6.47-20.06-16.44-23.53-23.7-22.89-10.6.91-18,11-22.53,23.62A164.63,164.63,0,0,1,106,260C76.4,235.42,47.26,195.27,50.92,154.19A242.79,242.79,0,0,1,117,74.84M449.13,267.71c9.58,68.19-54.19,123.05-75.33,139.19-1.78-5.81-3.82-19-1.69-47.42,1.3-17.32,0-28.51-4.28-36.35-4.71-8.65-11.93-11.52-17.72-13.84-6.19-2.44-11.07-4.4-15.72-14-5.77-15-5.11-26.36,2-34.68,19.85-23.19,83.37-21.09,97.76-19a24.91,24.91,0,0,0,2.76.65l8.91,1.66,2.85-8.61,2.37-7.38-6.3-4.44c-1.08-.76-2.13-1.49-6-2.15-10-3.17-29.74-17.18-47.3-29.63-10.87-7.72-21.31-15.12-31.1-21.43a73.51,73.51,0,0,1,14.57-11.72c40.82-25.1,100.55-10.19,101.14-10h.06a239.26,239.26,0,0,1,28.36,87.92c-10.73,4.92-37.8,16.93-47.88,19.75l-8.74,2.45Zm3.32-190.09A265,265,0,0,0,77.62,452.44,265,265,0,0,0,452.45,77.62"/></g></svg>