<svg id="Icon" xmlns="http://www.w3.org/2000/svg" viewBox="0 0 328.39 530.06"><defs><style>.cls-1{fill:#5c2d91;}</style></defs><title>icon_Mobile Telephony_rgb</title><g id="Icon_Vectorised"><path class="cls-1" d="M171.9,486.48l1.82-31.64H142.53l1.75,31.64ZM126.78,69.79h63.4V49h-63.4ZM246.67,116.5,236.2,412.09H93L79.09,116.53l167.58,0m57.82-89.37L278.78,470.21c-1.13,19.43-18.53,35.85-38,35.87l-193.87.09c-1.78,0-3.46-1.9-3.46-3.93v-.34L24,165.53a44.11,44.11,0,0,1,11.47-32.72,42.88,42.88,0,0,1,23-13.06l14.7,313.12h183.1L268.18,95.73H257.42l-180,0-1.79-38C75.77,37.91,88.21,24.14,106,24.14H301a3.26,3.26,0,0,1,3.45,3m23.9.22A27.39,27.39,0,0,0,301,0L106,.16C75.07.16,51.76,25.05,51.76,58l1.79,38.31a66.46,66.46,0,0,0-35.7,20.3A67.83,67.83,0,0,0,.12,166.92L19.58,502.63a27.61,27.61,0,0,0,27.35,27.43h0L240.8,530c32.23,0,60-26.2,61.83-58.36L328.37,28Z"/></g></svg>