<svg id="Icon" xmlns="http://www.w3.org/2000/svg" xmlns:xlink="http://www.w3.org/1999/xlink" viewBox="0 0 641.91 530.08"><defs><style>.cls-1{fill:none;}.cls-2{clip-path:url(#clip-path);}.cls-3{fill:#5c2d91;}</style><clipPath id="clip-path" transform="translate(0)"><rect class="cls-1" width="641.91" height="530.08"/></clipPath></defs><title>icon_TV Subscription_Offer_Live TV_rgb</title><g id="Icon_Vectorised"><g class="cls-2"><path class="cls-3" d="M102.76,518.19a11.89,11.89,0,0,0,11.89,11.89H527.26a11.9,11.9,0,0,0,0-23.8H114.65a11.9,11.9,0,0,0-11.89,11.91M333,172.4H307.09l50.77,126h23.67l50.77-126H406.39l-36.62,95.39Zm-29.29,0H204.21v20.09h37.65v106h24.19V192.49h37.64ZM559.31,85,542.59,379.55H91L77.21,85Zm58.76-58.15L595.36,405.22c-1.11,19.34-18.44,35.69-37.82,35.69l-512,.11c-1.77,0-3.43-1.9-3.43-3.91v-.34L23.91,132.7a43.23,43.23,0,0,1,11.35-32.25A42.61,42.61,0,0,1,56.58,88L71.25,400.27H562.17L581.24,64.41H77.78l-.34-7c.11-19.79,12.5-33.59,30.21-33.59h507a3.29,3.29,0,0,1,3.43,3m23.84.23A27.13,27.13,0,0,0,614.64,0h-507c-30.81,0-54,24.78-54,57.68l.28,6.48a66.67,66.67,0,0,0-53.78,70l18.2,303.41a27.52,27.52,0,0,0,27.26,27.32l512-.09c32.1,0,59.72-26.1,61.58-58.14L641.89,27.79Z" transform="translate(0)"/></g></g></svg>