<svg id="Icon" xmlns="http://www.w3.org/2000/svg" xmlns:xlink="http://www.w3.org/1999/xlink" viewBox="0 0 466.99 530.08"><defs><style>.cls-1{fill:none;}.cls-2{clip-path:url(#clip-path);}.cls-3{fill:#5c2d91;}</style><clipPath id="clip-path"><rect class="cls-1" width="466.99" height="530.08"/></clipPath></defs><title>icon_My Location_rgb</title><g id="Icon_Vectorised"><g class="cls-2"><path class="cls-3" d="M233.49,506.18C110,506.18,23.9,465.53,23.9,429c0-28.06,53-58.6,132.79-71.2,10.77,19.49,21.9,38.66,32.79,57.43,11.43,19.71,23.24,40.05,34.37,60.3a11.95,11.95,0,0,0,21,0c11.36-20.65,23.36-41.45,35-61.54,10.63-18.42,21.48-37.21,32.05-56.28C391.89,370.28,443.1,400.88,443.1,429c0,36.51-86.08,77.16-209.61,77.16M152.25,154.63c18.36-30.48,48.86-61.19,83-61.19a57.94,57.94,0,0,1,12.55,1.39,60.88,60.88,0,0,1-12.39,120.38A59.38,59.38,0,0,1,208,208.57c-21.1-10.83-40.73-29.86-55.76-53.94m-9.79,22.62c15.82,21.76,35.25,39.1,56.06,49.81A81.15,81.15,0,0,0,235.38,236h0a81.21,81.21,0,0,0,73.35-46.78c10.39-22.32,9.95-48.07-1.17-70.66a81.43,81.43,0,0,0-55.26-44,79.06,79.06,0,0,0-17.09-1.89c-21.2,0-42.11,8.48-62.13,25.2a178.17,178.17,0,0,0-31,34.39c-.1-.23-.2-.46-.31-.68-11.19-25.16-10.69-47.41,1.47-66.13,16.39-25.24,52.88-41.54,93-41.54a127,127,0,0,1,41.46,6.7c51.82,18.09,88,69.09,88,124,0,48.08-23.83,94.28-46.86,139q-3.15,6.07-6.21,12.09-6.7,13.1-13.75,26.08-6.16,11.36-12.49,22.66c-9,16.09-18.23,32-27.27,47.66-8.17,14.15-16.53,28.64-24.76,43.23-8-14.19-16.19-28.27-24.17-42-9.3-16-18.76-32.34-28-48.85q-6.32-11.3-12.46-22.67c-3.82-7.12-7.59-14.26-11.24-21.42-24.21-47.53-35.34-86.84-16-133.07M394.61,354.94c-20.74-8.33-44.7-14.87-70.7-19.42l.07-.12q5-9.42,9.88-18.89,3-5.94,6.18-12c23.21-45,49.51-96,49.51-149.91A156.57,156.57,0,0,0,285.53,8a149.24,149.24,0,0,0-49.34-8c-48,0-92.33,20.58-113,52.43-11.59,17.82-21.56,47.72-3.26,88.86,2,4.55,4.25,9.09,6.65,13.55-.85,1.66-1.68,3.32-2.47,5-27.81,58-14.89,106.48,13.07,161.34q3.63,7.16,7.41,14.25c0,.07.07.12.11.22-25.88,4.52-51.7,11-72.3,19.32C25.7,373.71,0,400,0,429s25.7,55.32,72.38,74.11c43.23,17.37,100.45,27,161.11,27s117.9-9.58,161.12-27C441.29,484.34,467,458,467,429s-25.7-55.31-72.38-74.08"/></g></g></svg>